<svg width="48" height="48" viewBox="0 0 48 48" fill="none" xmlns="http://www.w3.org/2000/svg">
<rect y="0.0489502" width="48" height="47.902" rx="8" fill="#1877F2"/>
<path fill-rule="evenodd" clip-rule="evenodd" d="M36 24.073C36 17.4323 30.6274 12.049 24 12.049C17.3726 12.049 12 17.4323 12 24.073C12 30.0746 16.3882 35.049 22.125 35.951V27.5487H19.0781V24.073H22.125V21.424C22.125 18.4104 23.9165 16.7458 26.6576 16.7458C27.9705 16.7458 29.3438 16.9807 29.3438 16.9807V19.9397H27.8306C26.3399 19.9397 25.875 20.8666 25.875 21.8175V24.073H29.2031L28.6711 27.5487H25.875V35.951C31.6118 35.049 36 30.0746 36 24.073Z" fill="white"/>
</svg>
