<svg width="22" height="21" viewBox="0 0 22 21" fill="none" xmlns="http://www.w3.org/2000/svg">
<path d="M10 2.5V4.00021C10 4.55249 9.55239 5 9.00011 5H7.5C6.11929 5 5 3.88071 5 2.5C5 1.11929 6.11929 0 7.5 0C8.88071 0 10 1.11929 10 2.5Z" fill="#2C2302"/>
<path d="M14.5 5H12.9998C12.4475 5 12 4.55239 12 4.00011V2.5C12 1.11929 13.1193 0 14.5 0C15.8807 0 17 1.11929 17 2.5C17 3.88071 15.8807 5 14.5 5Z" fill="#2C2302"/>
<path d="M9 21C9.55228 21 10 20.5523 10 20V8C10 7.44772 9.55228 7 9 7H1.5C0.671573 7 0 7.67157 0 8.5C0 9.32843 0.671573 10 1.5 10H2V19C2 20.1046 2.89543 21 4 21H9Z" fill="#2C2302"/>
<path d="M20 10V19C20 20.1046 19.1046 21 18 21H13C12.4477 21 12 20.5523 12 20V8C12 7.44772 12.4477 7 13 7H20.5C21.3284 7 22 7.67157 22 8.5C22 9.32843 21.3284 10 20.5 10H20Z" fill="#2C2302"/>
</svg>
