<svg width="48" height="48" viewBox="0 0 48 48" fill="none" xmlns="http://www.w3.org/2000/svg">
<rect width="48" height="48" rx="8" fill="url(#paint0_linear)"/>
<path fill-rule="evenodd" clip-rule="evenodd" d="M24 12C17.2394 12 12 16.9522 12 23.6404C12 27.139 13.4342 30.162 15.769 32.2506C15.9646 32.4268 16.0829 32.6707 16.0926 32.9339L16.1577 35.0683C16.1795 35.7492 16.8821 36.1911 17.505 35.9182L19.8857 34.8679C20.0885 34.7786 20.3131 34.7617 20.5256 34.8196C21.6193 35.1214 22.7855 35.2808 24 35.2808C30.7606 35.2808 36 30.3286 36 23.6404C36 16.9522 30.7606 12 24 12ZM31.2048 20.9554L27.6797 26.5475C27.1195 27.436 25.9171 27.6581 25.0769 27.028L22.2736 24.9249C22.0153 24.7318 21.6628 24.7342 21.4068 24.9273L17.6209 27.8006C17.1163 28.1845 16.4547 27.5785 16.7952 27.0424L20.3203 21.4504C20.8805 20.5619 22.0829 20.3397 22.9231 20.9699L25.7264 23.073C25.9847 23.2661 26.3372 23.2637 26.5932 23.0706L30.3791 20.1973C30.8837 19.8134 31.5453 20.4194 31.2048 20.9554Z" fill="white"/>
<defs>
<linearGradient id="paint0_linear" x1="24" y1="0" x2="24" y2="48.0006" gradientUnits="userSpaceOnUse">
<stop stop-color="#00B2FF"/>
<stop offset="1" stop-color="#006AFF"/>
</linearGradient>
</defs>
</svg>
