<svg width="48" height="48" viewBox="0 0 48 48" fill="none" xmlns="http://www.w3.org/2000/svg">
<rect width="48" height="48" rx="8" fill="#25D366"/>
<path fill-rule="evenodd" clip-rule="evenodd" d="M29.4719 26.3821C29.1748 26.2334 27.7139 25.5146 27.4415 25.4154C27.1691 25.3162 26.971 25.2666 26.7729 25.564C26.5748 25.8615 26.0053 26.5309 25.8319 26.7293C25.6586 26.9275 25.4853 26.9524 25.1882 26.8036C24.891 26.6548 23.9335 26.3411 22.7985 25.3286C21.915 24.5407 21.3187 23.5677 21.1453 23.2701C20.972 22.9727 21.1269 22.8119 21.2757 22.6637C21.4093 22.5305 21.5728 22.3166 21.7214 22.1431C21.87 21.9696 21.9195 21.8455 22.0185 21.6474C22.1176 21.449 22.0681 21.2755 21.9938 21.1268C21.9195 20.978 21.3252 19.5153 21.0776 18.9203C20.8364 18.341 20.5914 18.4194 20.409 18.4102C20.2358 18.4016 20.0375 18.3998 19.8395 18.3998C19.6414 18.3998 19.3194 18.4741 19.0471 18.7715C18.7747 19.0691 18.007 19.788 18.007 21.2506C18.007 22.7133 19.0718 24.1262 19.2204 24.3246C19.369 24.5229 21.3158 27.5243 24.2967 28.8115C25.0057 29.1177 25.5592 29.3006 25.9907 29.4374C26.7026 29.6637 27.3504 29.6318 27.8624 29.5553C28.4333 29.4699 29.6205 28.8364 29.8681 28.1423C30.1157 27.4481 30.1157 26.8532 30.0414 26.7293C29.9672 26.6053 29.7691 26.5309 29.4719 26.3821ZM24.05 33.7852H24.046C22.2723 33.7846 20.5326 33.3081 19.0149 32.4074L18.654 32.1932L14.9128 33.1746L15.9114 29.527L15.6764 29.153C14.6869 27.5792 14.1643 25.7603 14.1651 23.8925C14.1672 18.4425 18.6015 14.0086 24.0539 14.0086C26.6941 14.0095 29.176 15.039 31.0422 16.9074C32.9085 18.7758 33.9356 21.2593 33.9347 23.9005C33.9325 29.3509 29.4982 33.7852 24.05 33.7852ZM32.4626 15.4877C30.2173 13.2398 27.2313 12.0013 24.0498 12C17.4948 12 12.1597 17.3347 12.1571 23.8917C12.1562 25.9878 12.7038 28.0337 13.7446 29.8374L12.0574 36L18.3619 34.3462C20.0989 35.2936 22.0547 35.7931 24.0451 35.7937H24.05H24.05C30.6044 35.7937 35.94 30.4585 35.9426 23.9013C35.9438 20.7236 34.7079 17.7356 32.4626 15.4877Z" fill="white"/>
</svg>
