<svg width="304" height="384" viewBox="0 0 304 384" fill="none" xmlns="http://www.w3.org/2000/svg">
<g clip-path="url(#clip0)">
<g filter="url(#filter0_f)">
<path d="M37.5 295L266 307.5L181.724 345.008C177.383 346.939 172.497 347.263 167.941 345.921L49.4907 311.032C42.3812 308.938 37.5 302.411 37.5 295Z" fill="black" fill-opacity="0.6"/>
</g>
<mask id="mask0" mask-type="alpha" maskUnits="userSpaceOnUse" x="28" y="52" width="300" height="280">
<path d="M325.149 287.679L180.586 331.048C178.899 331.554 177.101 331.554 175.414 331.048L30.8506 287.679C29.1587 287.171 28 285.614 28 283.848V99.8C28 98.0336 29.1587 96.4763 30.8506 95.9687L176.851 52.1687C177.6 51.9438 178.4 51.9438 179.149 52.1687L325.149 95.9687C326.841 96.4763 328 98.0336 328 99.8V283.848C328 285.614 326.841 287.171 325.149 287.679Z" fill="white"/>
</mask>
<g mask="url(#mask0)">
<path d="M325.149 287.679L180.586 331.048C178.899 331.554 177.101 331.554 175.414 331.048L30.8506 287.679C29.1587 287.171 28 285.614 28 283.848V99.8C28 98.0336 29.1587 96.4763 30.8506 95.9687L176.851 52.1687C177.6 51.9438 178.4 51.9438 179.149 52.1687L325.149 95.9687C326.841 96.4763 328 98.0336 328 99.8V283.848C328 285.614 326.841 287.171 325.149 287.679Z" fill="url(#paint0_linear)"/>
<g style="mix-blend-mode:lighten">
<path d="M325.149 287.679L180.586 331.048C178.899 331.554 177.101 331.554 175.414 331.048L30.8506 287.679C29.1587 287.171 28 285.614 28 283.848V99.8C28 98.0336 29.1587 96.4763 30.8506 95.9687L176.851 52.1687C177.6 51.9438 178.4 51.9438 179.149 52.1687L325.149 95.9687C326.841 96.4763 328 98.0336 328 99.8V283.848C328 285.614 326.841 287.171 325.149 287.679Z" fill="white" fill-opacity="0.25"/>
</g>
<path d="M28 96.8239L178 141.824V331.824L28 286.824V96.8239Z" fill="url(#paint1_linear)"/>
<g style="mix-blend-mode:multiply">
<path d="M28 96.8239L178 141.824V331.824L28 286.824V96.8239Z" fill="black" fill-opacity="0.1"/>
</g>
<path d="M187.097 307.142C193.498 305.426 197.008 297.765 194.935 290.03C192.862 282.295 185.993 277.414 179.591 279.13C173.19 280.845 169.68 288.506 171.753 296.241C173.826 303.977 180.695 308.857 187.097 307.142Z" fill="#D5D4CF"/>
<path d="M157.097 277.142C163.498 275.426 167.008 267.765 164.935 260.03C162.862 252.295 155.993 247.414 149.591 249.13C143.19 250.845 139.68 258.506 141.753 266.241C143.826 273.977 150.695 278.857 157.097 277.142Z" fill="#D5D4CF"/>
<path d="M134.097 309.942C140.498 308.226 144.008 300.565 141.935 292.83C139.862 285.095 132.993 280.214 126.591 281.93C120.19 283.645 116.68 291.306 118.753 299.041C120.826 306.777 127.695 311.657 134.097 309.942Z" fill="#D5D4CF"/>
<path d="M134.097 231.942C140.498 230.226 144.008 222.565 141.935 214.83C139.862 207.095 132.993 202.214 126.591 203.93C120.19 205.645 116.68 213.306 118.753 221.041C120.826 228.777 127.695 233.657 134.097 231.942Z" fill="#D5D4CF"/>
<path d="M169.097 205.942C175.498 204.226 179.008 196.565 176.935 188.83C174.862 181.095 167.993 176.214 161.591 177.93C155.19 179.645 151.68 187.306 153.753 195.041C155.826 202.777 162.695 207.657 169.097 205.942Z" fill="#D5D4CF"/>
<path d="M142.097 165.942C148.498 164.226 152.008 156.565 149.935 148.83C147.862 141.095 140.993 136.214 134.591 137.93C128.19 139.645 124.68 147.306 126.753 155.041C128.826 162.777 135.695 167.657 142.097 165.942Z" fill="#D5D4CF"/>
<path d="M110.097 193.942C116.498 192.226 120.008 184.565 117.935 176.83C115.862 169.095 108.993 164.214 102.591 165.93C96.1895 167.645 92.6802 175.306 94.7529 183.041C96.8255 190.777 103.695 195.657 110.097 193.942Z" fill="#D5D4CF"/>
<path d="M87.0969 156.942C93.4985 155.226 97.0078 147.565 94.9351 139.83C92.8624 132.095 85.9927 127.214 79.5911 128.93C73.1895 130.645 69.6802 138.306 71.7529 146.041C73.8255 153.777 80.6953 158.657 87.0969 156.942Z" fill="#D5D4CF"/>
<path d="M68.0969 207.942C74.4985 206.226 78.0078 198.565 75.9351 190.83C73.8624 183.095 66.9927 178.214 60.5911 179.93C54.1895 181.645 50.6802 189.306 52.7529 197.041C54.8255 204.777 61.6953 209.657 68.0969 207.942Z" fill="#D5D4CF"/>
<path d="M91.0969 244.942C97.4985 243.226 101.008 235.565 98.9351 227.83C96.8624 220.095 89.9927 215.214 83.5911 216.93C77.1895 218.645 73.6802 226.306 75.7529 234.041C77.8255 241.777 84.6953 246.657 91.0969 244.942Z" fill="#D5D4CF"/>
<path d="M76.0969 285.942C82.4985 284.226 86.0078 276.565 83.9351 268.83C81.8624 261.095 74.9927 256.214 68.5911 257.93C62.1895 259.645 58.6802 267.306 60.7529 275.041C62.8255 282.777 69.6953 287.657 76.0969 285.942Z" fill="#D5D4CF"/>
<path d="M47.0969 254.942C53.4985 253.226 57.0078 245.565 54.9351 237.83C52.8624 230.095 45.9927 225.214 39.5911 226.93C33.1895 228.645 29.6802 236.306 31.7529 244.041C33.8255 251.777 40.6953 256.657 47.0969 254.942Z" fill="#D5D4CF"/>
<path d="M32.0969 180.942C38.4985 179.226 42.0078 171.565 39.9351 163.83C37.8624 156.095 30.9927 151.214 24.5911 152.93C18.1895 154.645 14.6802 162.306 16.7529 170.041C18.8255 177.777 25.6953 182.657 32.0969 180.942Z" fill="#D5D4CF"/>
<path d="M51.0969 139.942C57.4985 138.226 61.0078 130.565 58.9351 122.83C56.8624 115.095 49.9927 110.214 43.5911 111.93C37.1895 113.645 33.6802 121.306 35.7529 129.041C37.8255 136.777 44.6953 141.657 51.0969 139.942Z" fill="#D5D4CF"/>
<g filter="url(#filter1_d)">
<path d="M91 115.74L115 122.926V312.927L91 305.737V115.74Z" fill="url(#paint2_linear)"/>
</g>
<mask id="mask1" mask-type="alpha" maskUnits="userSpaceOnUse" x="178" y="96" width="150" height="236">
<path d="M178 331.824L328 286.824V96.8239L178 141.824V331.824Z" fill="white"/>
</mask>
<g mask="url(#mask1)">
<path d="M328 96.8239L178 141.824V331.824L328 286.824V96.8239Z" fill="url(#paint3_linear)"/>
<path d="M202.942 182.89C209.343 184.606 216.213 179.726 218.286 171.99C220.358 164.255 216.849 156.594 210.448 154.879C204.046 153.163 197.176 158.043 195.104 165.779C193.031 173.514 196.54 181.175 202.942 182.89Z" fill="white"/>
<path d="M233.591 148.942C239.993 150.657 246.862 145.777 248.935 138.041C251.008 130.306 247.498 122.645 241.097 120.93C234.695 119.214 227.826 124.095 225.753 131.83C223.68 139.565 227.19 147.226 233.591 148.942Z" fill="white"/>
<path d="M221.591 213.942C227.993 215.657 234.862 210.777 236.935 203.041C239.008 195.306 235.498 187.645 229.097 185.93C222.695 184.214 215.826 189.095 213.753 196.83C211.68 204.565 215.19 212.226 221.591 213.942Z" fill="white"/>
<path d="M194.591 248.942C200.993 250.657 207.862 245.777 209.935 238.041C212.008 230.306 208.498 222.645 202.097 220.93C195.695 219.214 188.826 224.095 186.753 231.83C184.68 239.565 188.19 247.226 194.591 248.942Z" fill="white"/>
<path d="M227.591 282.942C233.993 284.657 240.862 279.777 242.935 272.041C245.008 264.306 241.498 256.645 235.097 254.93C228.695 253.214 221.826 258.095 219.753 265.83C217.68 273.565 221.19 281.226 227.591 282.942Z" fill="white"/>
<path d="M258.591 238.942C264.993 240.657 271.862 235.777 273.935 228.041C276.008 220.306 272.498 212.645 266.097 210.93C259.695 209.214 252.826 214.095 250.753 221.83C248.68 229.565 252.19 237.226 258.591 238.942Z" fill="white"/>
<path d="M276.591 186.942C282.993 188.657 289.862 183.777 291.935 176.041C294.008 168.306 290.498 160.645 284.097 158.93C277.695 157.214 270.826 162.095 268.753 169.83C266.68 177.565 270.19 185.226 276.591 186.942Z" fill="white"/>
<path d="M301.591 148.942C307.993 150.657 314.862 145.777 316.935 138.041C319.008 130.306 315.498 122.645 309.097 120.93C302.695 119.214 295.826 124.095 293.753 131.83C291.68 139.565 295.19 147.226 301.591 148.942Z" fill="white"/>
<path d="M294.591 218.942C300.993 220.657 307.862 215.777 309.935 208.041C312.008 200.306 308.498 192.645 302.097 190.93C295.695 189.214 288.826 194.095 286.753 201.83C284.68 209.565 288.19 217.226 294.591 218.942Z" fill="white"/>
<path d="M281.591 265.942C287.993 267.657 294.862 262.777 296.935 255.041C299.008 247.306 295.498 239.645 289.097 237.93C282.695 236.214 275.826 241.095 273.753 248.83C271.68 256.565 275.19 264.226 281.591 265.942Z" fill="white"/>
<path d="M312.591 288.942C318.993 290.657 325.862 285.777 327.935 278.041C330.008 270.306 326.498 262.645 320.097 260.93C313.695 259.214 306.826 264.095 304.753 271.83C302.68 279.565 306.19 287.226 312.591 288.942Z" fill="white"/>
<path d="M270.591 311.942C276.993 313.657 283.862 308.777 285.935 301.041C288.008 293.306 284.498 285.645 278.097 283.93C271.695 282.214 264.826 287.095 262.753 294.83C260.68 302.565 264.19 310.226 270.591 311.942Z" fill="white"/>
<path d="M206.591 328.942C212.993 330.657 219.862 325.777 221.935 318.041C224.008 310.306 220.498 302.645 214.097 300.93C207.695 299.214 200.826 304.095 198.753 311.83C196.68 319.565 200.19 327.226 206.591 328.942Z" fill="white"/>
<path d="M179.591 305.942C185.993 307.657 192.862 302.777 194.935 295.041C197.008 287.306 193.498 279.645 187.097 277.93C180.695 276.214 173.826 281.095 171.753 288.83C169.68 296.565 173.19 304.226 179.591 305.942Z" fill="white"/>
<g filter="url(#filter2_d)">
<path d="M265 109.871L241 113.687V319.425L265 316.292V109.871Z" fill="url(#paint4_linear)"/>
</g>
</g>
<mask id="mask2" mask-type="alpha" maskUnits="userSpaceOnUse" x="28" y="51" width="300" height="91">
<path d="M178 51.8239L328 96.8239L178 141.824L28 96.8239L178 51.8239Z" fill="white"/>
</mask>
<g mask="url(#mask2)">
<path d="M178 51.8239L328 96.8239L178 141.824L28 96.8239L178 51.8239Z" fill="url(#paint5_linear)"/>
<path d="M178 51.8239L328 96.8239L178 141.824L28 96.8239L178 51.8239Z" fill="url(#paint6_linear)"/>
<path d="M226.195 132.885C226.195 139.512 232.687 144.885 240.695 144.885C248.703 144.885 255.195 139.512 255.195 132.885C255.195 126.257 248.703 120.885 240.695 120.885C232.687 120.885 226.195 126.257 226.195 132.885Z" fill="white"/>
<path d="M266.5 101.324C266.5 104.085 272.992 106.324 281 106.324C289.008 106.324 295.5 104.085 295.5 101.324C295.5 98.5625 289.008 96.3239 281 96.3239C272.992 96.3239 266.5 98.5625 266.5 101.324Z" fill="white"/>
<path d="M224.5 96.3239C224.5 99.0853 230.992 101.324 239 101.324C247.008 101.324 253.5 99.0853 253.5 96.3239C253.5 93.5625 247.008 91.3239 239 91.3239C230.992 91.3239 224.5 93.5625 224.5 96.3239Z" fill="white"/>
<path d="M278 84.8239C278 87.5853 284.492 89.8239 292.5 89.8239C300.508 89.8239 307 87.5853 307 84.8239C307 82.0625 300.508 79.8239 292.5 79.8239C284.492 79.8239 278 82.0625 278 84.8239Z" fill="white"/>
<path d="M191.5 114.324C191.5 117.085 197.992 119.324 206 119.324C214.008 119.324 220.5 117.085 220.5 114.324C220.5 111.562 214.008 109.324 206 109.324C197.992 109.324 191.5 111.562 191.5 114.324Z" fill="white"/>
<path d="M162.5 129.324C162.5 132.085 168.992 134.324 177 134.324C185.008 134.324 191.5 132.085 191.5 129.324C191.5 126.562 185.008 124.324 177 124.324C168.992 124.324 162.5 126.562 162.5 129.324Z" fill="white"/>
<path d="M122.5 97.3239C122.5 100.085 128.992 102.324 137 102.324C145.008 102.324 151.5 100.085 151.5 97.3239C151.5 94.5625 145.008 92.3239 137 92.3239C128.992 92.3239 122.5 94.5625 122.5 97.3239Z" fill="white"/>
<path d="M76.5 101.324C76.5 104.085 82.9919 106.324 91 106.324C99.0081 106.324 105.5 104.085 105.5 101.324C105.5 98.5625 99.0081 96.3239 91 96.3239C82.9919 96.3239 76.5 98.5625 76.5 101.324Z" fill="white"/>
<path d="M39.5 92.3239C39.5 95.0853 45.9919 97.3239 54 97.3239C62.0081 97.3239 68.5 95.0853 68.5 92.3239C68.5 89.5625 62.0081 87.3239 54 87.3239C45.9919 87.3239 39.5 89.5625 39.5 92.3239Z" fill="white"/>
<path d="M95.5 79.3239C95.5 82.0853 101.992 84.3239 110 84.3239C118.008 84.3239 124.5 82.0853 124.5 79.3239C124.5 76.5625 118.008 74.3239 110 74.3239C101.992 74.3239 95.5 76.5625 95.5 79.3239Z" fill="white"/>
<path d="M169.5 60.3239C169.5 63.0853 175.992 65.3239 184 65.3239C192.008 65.3239 198.5 63.0853 198.5 60.3239C198.5 57.5625 192.008 55.3239 184 55.3239C175.992 55.3239 169.5 57.5625 169.5 60.3239Z" fill="white"/>
<path d="M137.5 73.3239C137.5 76.0853 143.992 78.3239 152 78.3239C160.008 78.3239 166.5 76.0853 166.5 73.3239C166.5 70.5625 160.008 68.3239 152 68.3239C143.992 68.3239 137.5 70.5625 137.5 73.3239Z" fill="white"/>
<path d="M177.5 86.3239C177.5 89.0853 183.992 91.3239 192 91.3239C200.008 91.3239 206.5 89.0853 206.5 86.3239C206.5 83.5625 200.008 81.3239 192 81.3239C183.992 81.3239 177.5 83.5625 177.5 86.3239Z" fill="white"/>
<path d="M214.5 69.3239C214.5 72.0853 220.992 74.3239 229 74.3239C237.008 74.3239 243.5 72.0853 243.5 69.3239C243.5 66.5625 237.008 64.3239 229 64.3239C220.992 64.3239 214.5 66.5625 214.5 69.3239Z" fill="white"/>
<path d="M136.5 114.324C136.5 117.085 142.992 119.324 151 119.324C159.008 119.324 165.5 117.085 165.5 114.324C165.5 111.562 159.008 109.324 151 109.324C142.992 109.324 136.5 111.562 136.5 114.324Z" fill="white"/>
<g filter="url(#filter3_d)">
<path d="M115 122.926L265 77.9139L241 70.7209L91 115.74L115 122.926Z" fill="url(#paint7_linear)"/>
</g>
<g filter="url(#filter4_d)">
<path d="M241 122.926L91 77.9139L115 70.7209L265 115.74L241 122.926Z" fill="url(#paint8_linear)"/>
</g>
<path fill-rule="evenodd" clip-rule="evenodd" d="M126.179 88.5236C119.688 86.5369 122.795 78.6505 127.387 77.341C130.448 76.4681 139.813 78.233 155.481 82.636L231.454 105.871L210.5 113.824C158.614 98.2815 130.507 89.8481 126.179 88.5236Z" fill="#C89D46"/>
<path fill-rule="evenodd" clip-rule="evenodd" d="M206.252 112.375C205.234 112.053 216.57 110.324 216.57 105.871C216.57 101.417 211.496 97.229 204.877 101.443C198.257 105.657 186.352 105.692 178.869 103.297C173.881 101.701 155.209 96.4411 148.913 94.3825C139.558 91.3239 136.5 76.229 126.032 77.8822C129.479 75.7469 137.53 75.3425 143.077 72.0275C152.882 66.1676 159.108 83.7706 168.877 86.3239C173.979 87.6572 184.754 90.5372 201.203 94.964C211.912 97.3248 217.995 99.4266 225 94.964C231.454 90.8528 238.688 93.3239 238.688 98.9278C238.688 103.324 235.763 105.316 234.141 106.538C232.549 107.736 223.998 112.499 211.264 113.754C211.011 113.778 207.269 112.697 206.252 112.375Z" fill="url(#paint9_linear)"/>
</g>
<path fill-rule="evenodd" clip-rule="evenodd" d="M239.794 122.474L241 122.926V123.786L265 116.869V115.74L263.813 115.365L239.794 122.474Z" fill="url(#paint10_linear)"/>
<path fill-rule="evenodd" clip-rule="evenodd" d="M116.2 122.474L114.994 122.926V123.786L90.9939 116.869V115.74L92.1811 115.365L116.2 122.474Z" fill="url(#paint11_linear)"/>
</g>
</g>
<defs>
<filter id="filter0_f" x="-26.5" y="231" width="356.5" height="179.736" filterUnits="userSpaceOnUse" color-interpolation-filters="sRGB">
<feFlood flood-opacity="0" result="BackgroundImageFix"/>
<feBlend mode="normal" in="SourceGraphic" in2="BackgroundImageFix" result="shape"/>
<feGaussianBlur stdDeviation="32" result="effect1_foregroundBlur"/>
</filter>
<filter id="filter1_d" x="87" y="109.74" width="36" height="209.187" filterUnits="userSpaceOnUse" color-interpolation-filters="sRGB">
<feFlood flood-opacity="0" result="BackgroundImageFix"/>
<feColorMatrix in="SourceAlpha" type="matrix" values="0 0 0 0 0 0 0 0 0 0 0 0 0 0 0 0 0 0 127 0"/>
<feOffset dx="2"/>
<feGaussianBlur stdDeviation="3"/>
<feColorMatrix type="matrix" values="0 0 0 0 0 0 0 0 0 0 0 0 0 0 0 0 0 0 0.25 0"/>
<feBlend mode="normal" in2="BackgroundImageFix" result="effect1_dropShadow"/>
<feBlend mode="normal" in="SourceGraphic" in2="effect1_dropShadow" result="shape"/>
</filter>
<filter id="filter2_d" x="233" y="103.871" width="36" height="221.554" filterUnits="userSpaceOnUse" color-interpolation-filters="sRGB">
<feFlood flood-opacity="0" result="BackgroundImageFix"/>
<feColorMatrix in="SourceAlpha" type="matrix" values="0 0 0 0 0 0 0 0 0 0 0 0 0 0 0 0 0 0 127 0"/>
<feOffset dx="-2"/>
<feGaussianBlur stdDeviation="3"/>
<feColorMatrix type="matrix" values="0 0 0 0 0 0 0 0 0 0 0 0 0 0 0 0 0 0 0.25 0"/>
<feBlend mode="normal" in2="BackgroundImageFix" result="effect1_dropShadow"/>
<feBlend mode="normal" in="SourceGraphic" in2="effect1_dropShadow" result="shape"/>
</filter>
<filter id="filter3_d" x="85" y="65.7209" width="186" height="64.2054" filterUnits="userSpaceOnUse" color-interpolation-filters="sRGB">
<feFlood flood-opacity="0" result="BackgroundImageFix"/>
<feColorMatrix in="SourceAlpha" type="matrix" values="0 0 0 0 0 0 0 0 0 0 0 0 0 0 0 0 0 0 127 0"/>
<feOffset dy="1"/>
<feGaussianBlur stdDeviation="3"/>
<feColorMatrix type="matrix" values="0 0 0 0 0 0 0 0 0 0 0 0 0 0 0 0 0 0 0.25 0"/>
<feBlend mode="normal" in2="BackgroundImageFix" result="effect1_dropShadow"/>
<feBlend mode="normal" in="SourceGraphic" in2="effect1_dropShadow" result="shape"/>
</filter>
<filter id="filter4_d" x="85" y="65.7209" width="186" height="64.2054" filterUnits="userSpaceOnUse" color-interpolation-filters="sRGB">
<feFlood flood-opacity="0" result="BackgroundImageFix"/>
<feColorMatrix in="SourceAlpha" type="matrix" values="0 0 0 0 0 0 0 0 0 0 0 0 0 0 0 0 0 0 127 0"/>
<feOffset dy="1"/>
<feGaussianBlur stdDeviation="3"/>
<feColorMatrix type="matrix" values="0 0 0 0 0 0 0 0 0 0 0 0 0 0 0 0 0 0 0.25 0"/>
<feBlend mode="normal" in2="BackgroundImageFix" result="effect1_dropShadow"/>
<feBlend mode="normal" in="SourceGraphic" in2="effect1_dropShadow" result="shape"/>
</filter>
<linearGradient id="paint0_linear" x1="178" y1="52" x2="178" y2="331.428" gradientUnits="userSpaceOnUse">
<stop stop-color="#0077EF"/>
<stop offset="1" stop-color="#0042DA"/>
</linearGradient>
<linearGradient id="paint1_linear" x1="103" y1="96.8239" x2="103" y2="331.824" gradientUnits="userSpaceOnUse">
<stop stop-color="#0269E6"/>
<stop offset="1" stop-color="#0138C8"/>
</linearGradient>
<linearGradient id="paint2_linear" x1="103" y1="115.74" x2="103" y2="312.927" gradientUnits="userSpaceOnUse">
<stop stop-color="#E9B857"/>
<stop offset="1" stop-color="#C89D46"/>
</linearGradient>
<linearGradient id="paint3_linear" x1="253" y1="96.8239" x2="253" y2="331.824" gradientUnits="userSpaceOnUse">
<stop stop-color="#5875EC"/>
<stop offset="1" stop-color="#2D50E6"/>
</linearGradient>
<linearGradient id="paint4_linear" x1="253" y1="109.871" x2="253" y2="319.425" gradientUnits="userSpaceOnUse">
<stop stop-color="#EEC675"/>
<stop offset="1" stop-color="#E9B857"/>
</linearGradient>
<linearGradient id="paint5_linear" x1="178" y1="51.8239" x2="178" y2="141.824" gradientUnits="userSpaceOnUse">
<stop stop-color="#0077EF"/>
<stop offset="1" stop-color="#0042DA"/>
</linearGradient>
<linearGradient id="paint6_linear" x1="178" y1="51.8239" x2="178" y2="141.824" gradientUnits="userSpaceOnUse">
<stop stop-color="#829AF2"/>
<stop offset="1" stop-color="#5875EC"/>
</linearGradient>
<linearGradient id="paint7_linear" x1="178" y1="70.7209" x2="178" y2="122.926" gradientUnits="userSpaceOnUse">
<stop stop-color="#EEC675"/>
<stop offset="1" stop-color="#F3D393"/>
</linearGradient>
<linearGradient id="paint8_linear" x1="178" y1="70.7209" x2="178" y2="122.926" gradientUnits="userSpaceOnUse">
<stop stop-color="#F3D393"/>
<stop offset="1" stop-color="#EEC675"/>
</linearGradient>
<linearGradient id="paint9_linear" x1="210.5" y1="104.324" x2="212.987" y2="114.621" gradientUnits="userSpaceOnUse">
<stop stop-color="#F3D393"/>
<stop offset="1" stop-color="#C89D46"/>
</linearGradient>
<linearGradient id="paint10_linear" x1="253.302" y1="119.402" x2="253.422" y2="119.827" gradientUnits="userSpaceOnUse">
<stop stop-color="#F7D45A"/>
<stop offset="0.996965" stop-color="#FBE246"/>
</linearGradient>
<linearGradient id="paint11_linear" x1="102.691" y1="119.402" x2="102.572" y2="119.825" gradientUnits="userSpaceOnUse">
<stop stop-color="#F7D45A"/>
<stop offset="1" stop-color="#E2CC40"/>
</linearGradient>
<clipPath id="clip0">
<rect width="304" height="384" fill="white"/>
</clipPath>
</defs>
</svg>
