<svg width="46" height="21" viewBox="0 0 46 21" fill="none" xmlns="http://www.w3.org/2000/svg">
<path d="M0 0H3.5V20C1.567 20 0 18.433 0 16.5V0Z" fill="#2D50E6"/>
<path fill-rule="evenodd" clip-rule="evenodd" d="M39 5.75C35.0117 5.75 32 8.77771 32 13C32 17.1945 35.0117 20.25 39 20.25C42.9883 20.25 46 17.1945 46 13C46 8.77771 42.9883 5.75 39 5.75ZM39 16.75C37.1799 16.75 35.5 15.4642 35.5 12.9999C35.5 10.5089 37.1799 9.25 39 9.25C40.8201 9.25 42.5 10.5089 42.5 12.9999C42.5 15.4911 40.8201 16.75 39 16.75Z" fill="#2D50E6"/>
<path d="M9 6H5.5V15.25C5.5 18.0114 7.73858 20.25 10.5 20.25C12.1356 20.25 13.5878 19.4647 14.5 18.2505V20H18V6H14.5V14C14.5 15.5188 13.2688 16.75 11.75 16.75C10.2312 16.75 9 15.5188 9 14V6Z" fill="#2D50E6"/>
<path d="M20 0C21.933 0 23.5 1.567 23.5 3.5V11.4545L28.5 6H33L27.332 11.9515L33.25 20H28.75L24.7925 14.6178L23.5 15.975V20H20V0Z" fill="#2D50E6"/>
</svg>
